<?xml version="1.0" standalone="no"?>
<!DOCTYPE svg PUBLIC "-//W3C//DTD SVG 20010904//EN"
 "http://www.w3.org/TR/2001/REC-SVG-20010904/DTD/svg10.dtd">
<svg version="1.0" xmlns="http://www.w3.org/2000/svg"
 width="262.000000pt" height="262.000000pt" viewBox="0 0 262.000000 262.000000"
 preserveAspectRatio="xMidYMid meet">
<metadata>
Created by potrace 1.14, written by Peter Selinger 2001-2017
</metadata>
<g transform="translate(0.000000,262.000000) scale(0.100000,-0.100000)"
fill="#000000" stroke="none">
<path d="M70 2606 c-40 -19 -63 -60 -55 -95 7 -31 30 -62 245 -321 61 -74 180
-218 263 -320 83 -102 164 -198 179 -214 15 -17 32 -40 39 -52 12 -24 10 -29
-107 -236 l-48 -87 -28 47 c-15 25 -25 48 -23 50 2 2 -11 29 -29 60 -18 32
-39 72 -47 90 -7 17 -17 32 -21 32 -5 0 -8 5 -8 11 0 7 -10 31 -22 55 -18 37
-24 42 -37 32 -13 -10 -14 -10 -3 2 15 18 15 30 -3 54 -17 22 -95 34 -95 15 0
-8 -4 -8 -12 -2 -17 14 -80 15 -72 1 4 -7 0 -7 -12 0 -11 5 -38 10 -61 11 -34
1 -43 -3 -44 -17 -1 -9 -3 -125 -5 -257 -2 -132 -5 -268 -6 -303 -2 -34 1 -62
5 -62 5 0 5 -5 1 -12 -12 -19 -11 -98 1 -98 6 0 7 -3 0 -8 -13 -9 -16 -123 -4
-139 6 -6 6 -14 1 -16 -12 -8 -14 -87 -2 -102 15 -18 339 -20 341 -2 7 56 4
113 -5 119 -8 5 -7 8 2 8 6 0 12 7 12 15 0 8 -6 15 -12 15 -10 0 -10 3 0 9 10
6 13 26 10 70 -1 33 -1 61 2 61 3 0 13 -13 22 -30 16 -28 18 -29 100 -28 46 0
91 5 102 10 12 6 16 7 12 0 -8 -13 23 -20 54 -12 15 3 31 19 41 40 17 34 17
33 12 -64 -3 -71 0 -102 9 -114 10 -12 10 -14 1 -8 -10 5 -13 -4 -13 -36 0
-39 -6 -49 -68 -114 -37 -39 -119 -126 -182 -194 -63 -68 -133 -142 -155 -165
-129 -134 -270 -288 -273 -298 -2 -7 34 27 80 74 111 114 442 466 548 581 31
34 57 55 64 50 17 -10 156 -10 149 1 -3 5 4 4 15 -2 26 -14 82 -14 82 -1 0 6
5 10 11 10 5 0 7 -5 4 -10 -4 -7 7 -10 30 -8 20 1 39 6 42 11 3 5 7 72 8 148
2 103 0 137 -8 132 -9 -5 -9 -3 0 8 6 8 11 31 11 53 0 21 7 45 15 54 18 17 3
31 146 -143 45 -55 90 -109 99 -120 10 -11 89 -108 177 -215 87 -107 162 -197
165 -200 3 -3 76 -90 162 -195 85 -104 165 -199 178 -210 20 -19 38 -20 234
-22 123 -1 225 2 244 8 35 12 62 52 62 93 0 26 -12 41 -332 428 l-138 168 51
26 c28 14 62 37 76 50 13 13 26 24 29 24 8 0 72 72 85 96 9 18 9 25 -2 36 -29
29 -93 67 -102 61 -6 -3 -7 -1 -4 4 9 14 -40 46 -55 37 -7 -4 -8 -3 -4 4 8 13
-48 45 -59 34 -3 -4 -5 -1 -3 6 5 22 -29 39 -49 25 -10 -6 -17 -16 -15 -23 1
-6 -2 -9 -7 -6 -5 4 -16 -2 -23 -11 -23 -32 -108 -60 -164 -54 -6 0 -48 46
-93 101 -66 82 -81 106 -79 131 1 17 6 33 10 35 5 3 6 9 3 13 -2 5 15 29 39
55 48 53 104 75 174 69 47 -4 124 -49 142 -83 7 -13 16 -17 28 -13 23 9 196
126 200 135 2 5 10 8 18 8 9 0 12 5 8 13 -4 6 -4 9 1 5 13 -12 45 11 45 32 0
11 -4 20 -10 20 -5 0 -10 5 -10 10 0 16 -89 103 -140 137 -74 49 -230 103
-230 80 0 -9 -2 -9 -8 0 -13 20 -197 6 -247 -20 -19 -10 26 43 105 124 19 20
91 96 160 169 69 74 141 150 160 171 19 20 91 96 160 170 69 73 146 155 173
183 26 28 47 55 47 61 0 5 -29 -20 -63 -56 -84 -88 -336 -356 -422 -448 -38
-41 -92 -98 -118 -125 -27 -28 -96 -102 -155 -163 -58 -62 -110 -113 -115
-113 -19 0 -137 -91 -176 -137 l-41 -48 -18 22 c-70 88 -138 170 -146 178 -6
6 -38 44 -71 85 -33 41 -62 77 -65 80 -4 3 -98 118 -211 255 -113 138 -243
296 -289 353 -67 81 -92 104 -120 111 -52 14 -423 11 -450 -3z m1047 -1478
c-3 -8 -6 -5 -6 6 -1 11 2 17 5 13 3 -3 4 -12 1 -19z m-254 -23 c-3 -9 -8 -14
-10 -11 -3 3 -2 9 2 15 9 16 15 13 8 -4z"/>
</g>
</svg>
